<?xml version="1.0" encoding="utf-8"?>
<!-- Generator: Adobe Illustrator 27.7.0, SVG Export Plug-In . SVG Version: 6.00 Build 0)  -->
<svg version="1.1" xmlns="http://www.w3.org/2000/svg" xmlns:xlink="http://www.w3.org/1999/xlink" x="0px" y="0px"
	 viewBox="0 0 256 512" style="enable-background:new 0 0 256 512;" xml:space="preserve">
<style type="text/css">
	.st0{fill:#333333;}
	.st1{fill:#222222;}
	.st2{display:none;}
	.st3{display:inline;fill:#FFFFFF;}
	.st4{fill:none;stroke:#FFFFFF;stroke-width:24;stroke-miterlimit:10;}
	.st5{fill:#FFFFFF;}
</style>
<g id="Layer_1">
	<path class="st0" d="M199.83,256H56.17C25.15,256,0,230.85,0,199.83V56.17C0,25.15,25.15,0,56.17,0h143.66
		C230.85,0,256,25.15,256,56.17v143.66C256,230.85,230.85,256,199.83,256z"/>
	<path class="st1" d="M199.83,512H56.17C25.15,512,0,486.85,0,455.83V312.17C0,281.15,25.15,256,56.17,256h143.66
		c31.02,0,56.17,25.15,56.17,56.17v143.66C256,486.85,230.85,512,199.83,512z"/>
</g>
<g id="Layer_2" class="st2">
	<path class="st3" d="M243.64,122.16l-17.45,30.23l-2.49,4.31l-4.78-8.28l-15.17-26.26h15.76C216.49,74.31,176.6,36.3,128,36.3
		c-37.79,0-70.32,22.99-84.34,55.71l-7.49-2.82C51.33,53.44,86.79,28.3,128,28.3c53.01,0,96.5,41.6,99.52,93.86H243.64z"/>
	<path class="st3" d="M221.13,167.29c-15.27,35.49-50.59,60.41-91.62,60.41c-53.01,0-96.5-41.6-99.52-93.86H13.87l17.45-30.22v-0.01
		l2.49-4.31l4.78,8.28l15.17,26.26H38c3.02,47.85,42.91,85.86,91.51,85.86c37.61,0,70-22.76,84.12-55.23L221.13,167.29z"/>
	<path class="st3" d="M243.64,378.16l-17.45,30.23l-2.49,4.31l-4.78-8.28l-15.17-26.26h15.76c-3.02-47.85-42.91-85.86-91.51-85.86
		c-37.79,0-70.32,22.99-84.34,55.71l-7.49-2.82C51.33,309.44,86.79,284.3,128,284.3c53.01,0,96.5,41.6,99.52,93.86H243.64z"/>
	<path class="st3" d="M221.13,423.29c-15.27,35.49-50.59,60.41-91.62,60.41c-53.01,0-96.5-41.6-99.52-93.86H13.87l17.45-30.22v-0.01
		l2.49-4.31l4.78,8.28l15.17,26.26H38c3.02,47.85,42.91,85.86,91.51,85.86c37.61,0,70-22.76,84.12-55.23L221.13,423.29z"/>
</g>
<g id="Layer_3">
	<g>
		<g>
			<path class="st4" d="M60.11,88.39C73.75,65.08,99.04,49.42,128,49.42c27.56,0,51.8,14.18,65.83,35.65"/>
			<g>
				<polygon class="st5" points="159.51,87.31 206.58,128 218.29,66.89 				"/>
			</g>
		</g>
	</g>
	<g>
		<g>
			<path class="st4" d="M201.24,167.61c-13.63,23.31-38.93,38.98-67.89,38.98c-27.56,0-51.8-14.18-65.83-35.65"/>
			<g>
				<polygon class="st5" points="101.84,168.69 54.76,128 43.06,189.11 				"/>
			</g>
		</g>
	</g>
	<g>
		<g>
			<path class="st4" d="M60.11,344.39c13.63-23.31,38.93-38.98,67.89-38.98c27.56,0,51.8,14.18,65.83,35.65"/>
			<g>
				<polygon class="st5" points="159.51,343.31 206.58,384 218.29,322.89 				"/>
			</g>
		</g>
	</g>
	<g>
		<g>
			<path class="st4" d="M201.24,423.61c-13.63,23.31-38.93,38.98-67.89,38.98c-27.56,0-51.8-14.18-65.83-35.65"/>
			<g>
				<polygon class="st5" points="101.84,424.69 54.76,384 43.06,445.11 				"/>
			</g>
		</g>
	</g>
</g>
</svg>
