<?xml version="1.0" encoding="UTF-8"?><svg id="Layer_2" xmlns="http://www.w3.org/2000/svg" viewBox="0 0 529.5 493.98"><defs><style>.cls-1{fill:#fff;}.cls-2{stroke-miterlimit:3.86;stroke-width:2px;}.cls-2,.cls-3,.cls-4,.cls-5,.cls-6,.cls-7,.cls-8,.cls-9,.cls-10{stroke:#231f20;}.cls-2,.cls-5,.cls-9{fill:#0b7540;}.cls-3{fill:#c5582f;}.cls-3,.cls-5,.cls-7,.cls-10{stroke-linecap:round;}.cls-3,.cls-7,.cls-8{stroke-width:4px;}.cls-3,.cls-7,.cls-9{stroke-linejoin:round;}.cls-4{fill:#c7582e;}.cls-4,.cls-6,.cls-8{stroke-miterlimit:10;}.cls-5,.cls-10{stroke-miterlimit:3.86;stroke-width:3.25px;}.cls-6,.cls-8,.cls-10{fill:#fec959;}.cls-7{fill:none;}.cls-9{stroke-width:6px;}</style></defs><g id="Rope"><path class="cls-4" d="m430.36,434.29l4.35,7.54c2.18,3.77,6.99,5.06,10.76,2.88l-4.35-7.54c-2.18-3.77-6.99-5.06-10.76-2.88h0Z"/><path class="cls-6" d="m421.26,434.29l4.35,7.54c2.18,3.77,6.99,5.06,10.76,2.88l-4.35-7.54c-2.18-3.77-6.99-5.06-10.76-2.88h0Z"/><path class="cls-4" d="m412.16,434.29l4.35,7.54c2.18,3.77,6.99,5.06,10.76,2.88l-4.35-7.54c-2.18-3.77-6.99-5.06-10.76-2.88h0Z"/><path class="cls-6" d="m403.07,434.29l4.35,7.54c2.18,3.77,6.99,5.06,10.76,2.88l-4.35-7.54c-2.18-3.77-6.99-5.06-10.76-2.88h0Z"/><path class="cls-4" d="m409.08,444.71c-3.77,2.18-8.59.89-10.76-2.88l-2.05-3.55c1.51-1.48,2.99-3,4.41-4.54,1.62.61,3.05,1.75,3.99,3.34.02.03.04.06.06.09,1.03,1.78,3.35,5.8,4.35,7.54Z"/><path class="cls-6" d="m399.98,444.71c-3.08,1.78-6.86,1.24-9.33-1.08.02-.02.05-.04.07-.06.07-.06.14-.12.2-.18,1.82-1.66,3.6-3.36,5.35-5.11.92,1.59,2.8,4.85,3.71,6.43Z"/><path class="cls-4" d="m390.89,444.71c-.78.45-1.61.76-2.45.91.66-.57,1.32-1.16,1.96-1.76l.49.85Z"/><path class="cls-4" d="m99.13,434.29l-4.35,7.54c-2.18,3.77-6.99,5.06-10.76,2.88l4.35-7.54c2.18-3.77,6.99-5.06,10.76-2.88h0Z"/><path class="cls-6" d="m108.23,434.29l-4.35,7.54c-2.18,3.77-6.99,5.06-10.76,2.88l4.35-7.54c2.18-3.77,6.99-5.06,10.76-2.88h0Z"/><path class="cls-4" d="m117.32,434.29l-4.35,7.54c-2.18,3.77-6.99,5.06-10.76,2.88l4.35-7.54c2.18-3.77,6.99-5.06,10.76-2.88h0Z"/><path class="cls-6" d="m126.42,434.29l-4.35,7.54c-2.18,3.77-6.99,5.06-10.76,2.88l4.35-7.54c2.18-3.77,6.99-5.06,10.76-2.88h0Z"/><path class="cls-4" d="m133.21,438.27l-2.11,3.65c-2.2,3.7-6.96,4.95-10.7,2.79l1.66-2.88,2.69-4.66c.95-1.64,2.4-2.81,4.04-3.43,1.43,1.54,2.91,3.05,4.42,4.53Z"/><path class="cls-6" d="m138.83,443.63c-2.47,2.32-6.26,2.86-9.34,1.08.9-1.56,2.81-4.86,3.72-6.44,1.75,1.75,3.54,3.45,5.36,5.11l.18.18s.05.05.08.07Z"/><path class="cls-4" d="m141.06,445.63c-.85-.16-1.68-.46-2.47-.92l.49-.85c.65.6,1.31,1.19,1.98,1.77Z"/><path class="cls-4" d="m293.29,98.02l4.35-7.54c2.18-3.77.88-8.59-2.88-10.76l-4.35,7.54c-2.18,3.77-.88,8.59,2.88,10.76h0Z"/><path class="cls-6" d="m297.84,105.9l4.35-7.54c2.18-3.77.88-8.59-2.88-10.76l-4.35,7.54c-2.18,3.77-.88,8.59,2.88,10.76h0Z"/><path class="cls-4" d="m302.39,113.77l4.35-7.54c2.18-3.77.88-8.59-2.88-10.76l-4.35,7.54c-2.18,3.77-.88,8.59,2.88,10.76h0Z"/><path class="cls-6" d="m306.94,121.65l4.35-7.54c2.18-3.77.88-8.59-2.88-10.76l-4.35,7.54c-2.18,3.77-.88,8.59,2.88,10.76h0Z"/><path class="cls-4" d="m315.83,121.99l-1.97,3.42c-2.07-.56-4.14-1.09-6.23-1.58-.25-1.69.05-3.47.97-5.06l2.71-4.69,1.64-2.85c3.77,2.18,5.06,6.99,2.88,10.76Z"/><path class="cls-6" d="m321.25,127.6s-.04-.01-.06-.02c-.09-.03-.18-.06-.27-.09-2.33-.73-4.69-1.43-7.06-2.08.9-1.57,2.74-4.75,3.64-6.3,3.04,1.75,4.47,5.23,3.75,8.49Z"/><path class="cls-4" d="m323.89,128.46c-.75-.25-1.5-.49-2.26-.74l.42-.73c.71.4,1.32.9,1.84,1.47Z"/><path class="cls-4" d="m458.91,384.87h8.7c4.35,0,7.88,3.53,7.88,7.88h-8.7c-4.35,0-7.88-3.53-7.88-7.88h0Z"/><path class="cls-6" d="m454.36,376.99h8.7c4.35,0,7.88,3.53,7.88,7.88h-8.7c-4.35,0-7.88-3.53-7.88-7.88h0Z"/><path class="cls-4" d="m449.81,369.12h8.7c4.35,0,7.88,3.53,7.88,7.88h-8.7c-4.35,0-7.88-3.53-7.88-7.88h0Z"/><path class="cls-6" d="m445.26,361.24h8.7c4.35,0,7.88,3.53,7.88,7.88h-8.7c-4.35,0-7.88-3.53-7.88-7.88h0Z"/><path class="cls-4" d="m457.29,361.24h-8.7c-1.86,0-3.56-.64-4.9-1.72.57-1.91,1.12-3.82,1.63-5.75.04-.14.07-.27.11-.41h3.98c4.36,0,7.88,3.53,7.88,7.88Z"/><path class="cls-6" d="m452.74,353.36h-7.31c.66-2.47,1.25-4.96,1.81-7.46,0-.02.01-.04.01-.06,3.19,1.02,5.49,4,5.49,7.52Z"/><path class="cls-4" d="m448.2,345.48h-.87c.18-.81.34-1.6.5-2.4.24.75.37,1.56.37,2.4Z"/><path class="cls-4" d="m70.6,384.86h-8.7c-4.35,0-7.88,3.53-7.88,7.88h8.7c4.35,0,7.88-3.53,7.88-7.88h0Z"/><path class="cls-6" d="m75.15,376.98h-8.7c-4.35,0-7.88,3.53-7.88,7.88h8.7c4.35,0,7.88-3.53,7.88-7.88h0Z"/><path class="cls-4" d="m79.7,369.1h-8.7c-4.35,0-7.88,3.53-7.88,7.88h8.7c4.35,0,7.88-3.53,7.88-7.88h0Z"/><path class="cls-6" d="m84.25,361.22h-8.7c-4.35,0-7.88,3.53-7.88,7.88h8.7c4.35,0,7.88-3.53,7.88-7.88h0Z"/><path class="cls-4" d="m85.79,359.52c-1.34,1.07-3.03,1.7-4.88,1.7h-8.7c0-4.35,3.53-7.88,7.88-7.88h3.97c.03.14.07.29.11.43.51,1.93,1.06,3.85,1.62,5.75Z"/><path class="cls-6" d="m84.06,353.34h-7.3c0-3.52,2.3-6.49,5.48-7.5,0,.02.01.04.01.06.56,2.49,1.15,4.98,1.81,7.44Z"/><path class="cls-4" d="m82.16,345.47h-.85c0-.82.12-1.61.35-2.35.16.78.33,1.56.5,2.35Z"/><path class="cls-4" d="m236.22,98l-4.35-7.54c-2.18-3.77-.88-8.59,2.88-10.76l4.35,7.54c2.18,3.77.88,8.59-2.88,10.76h0Z"/><path class="cls-6" d="m231.67,105.88l-4.35-7.54c-2.18-3.77-.88-8.59,2.88-10.76l4.35,7.54c2.18,3.77.88,8.59-2.88,10.76h0Z"/><path class="cls-4" d="m227.12,113.76l-4.35-7.54c-2.18-3.77-.88-8.59,2.88-10.76l4.35,7.54c2.18,3.77.88,8.59-2.88,10.76h0Z"/><path class="cls-6" d="m222.57,121.64l-4.35-7.54c-2.18-3.77-.88-8.59,2.88-10.76l4.35,7.54c2.18,3.77.88,8.59-2.88,10.76h0Z"/><path class="cls-4" d="m221.87,123.84c-1.95.45-3.87.93-5.8,1.46h-.01c-.14.04-.27.07-.41.11l-1.98-3.43c-2.18-3.77-.89-8.59,2.88-10.76l1.67,2.88,2.68,4.65c.93,1.6,1.23,3.39.97,5.09Z"/><path class="cls-6" d="m215.65,125.41c-2.47.69-4.97,1.39-7.4,2.2-.73-3.27.7-6.76,3.75-8.52.9,1.55,2.75,4.75,3.65,6.32Z"/><path class="cls-4" d="m207.88,127.72c-.77.24-1.53.49-2.29.75.52-.58,1.15-1.09,1.86-1.5l.43.75Z"/></g><g id="Triangle"><g id="Triangle-2"><path class="cls-10" d="m273.06,106.45l25.63-44.4L264.74,3.25l-33.94,58.79,14.64,25.34h0c5.34,9.25,12.83,22.25,18.18,31.5,4.77-.05,9.54.12,14.26.44.55-1.83.37-3.88-.66-5.67l-4.16-7.2Zm-12.85-22.26c-3.19-5.52-9.6-16.62-12.78-22.13l17.32-30.01,17.32,30.01-17.32,29.99-4.54-7.86Zm3.41,34.69c-4.03.02-8.02.16-11.99.44h-.01c-.58-1.92-.31-3.98.67-5.67.03-.06.06-.13.11-.19l4.04-7.01,7.18,12.43Zm1.13-26.83l8.31,14.4"/><path class="cls-10" d="m492.74,398.15h-65.66c-2.36,4.12-4.86,8.15-7.52,12.06h0c1.31,1.44,3.19,2.33,5.28,2.33h8.31l25.64,44.4h67.89l-33.94-58.79Zm-42.97,14.39h34.64l17.33,30h-34.65l-17.32-30Zm-8.31-14.39h-14.38c1.99-3.47,3.86-7.01,5.62-10.62,1.96.46,3.62,1.72,4.6,3.42.04.06.08.12.11.19l4.05,7.01Zm-8.31,14.39h16.62"/><path class="cls-10" d="m96.79,387.53c-1.88.43-3.57,1.61-4.61,3.41l-4.16,7.2h-51.27S2.81,456.94,2.81,456.94h67.88c9.85-17.05,23.08-39.98,32.84-56.87h0c-2.4-4.09-4.65-8.27-6.74-12.54Zm-28.08,44.06l-6.32,10.94H27.75s17.32-29.99,17.32-29.99h34.64c-2.62,4.53-8.35,14.45-11,19.05Zm41.23-21.37c-1.38,1.49-3.32,2.31-5.3,2.31-.07,0-.14,0-.21,0h-8.1l7.2-12.46c2.03,3.46,4.17,6.84,6.41,10.15Zm-21.92-12.08l-8.31,14.4"/><g id="Side"><path class="cls-5" d="m340.85,135.07c-4.68-2.09-9.47-4-14.34-5.71h-.01l-29.52-51.14,5.52-9.57,38.35,66.42Z"/><path class="cls-5" d="m488.92,391.54h-11.05l-29.51-51.13c.95-5.02,1.69-10.12,2.22-15.28l38.34,66.41Z"/><path class="cls-5" d="m304.7,123.17c-4.74-1.04-9.54-1.9-14.4-2.56l-8.9-15.41,6.47-11.19,16.83,29.16Z"/><path class="cls-5" d="m482.77,431.59h-12.93c-9.4-16.3-22.59-39.14-32.02-55.47,1.83-4.5,3.5-9.08,4.99-13.75,11.19,19.36,28.92,50.1,39.96,69.22Z"/></g><g id="Side-2"><path class="cls-5" d="m81.13,340.4l-29.52,51.14h-11.05l38.34-66.42c.54,5.16,1.28,10.26,2.23,15.28Z"/><path class="cls-5" d="m232.5,78.21l-29.53,51.15c-4.88,1.72-9.67,3.63-14.36,5.73l38.37-66.45,5.52,9.57Z"/><path class="cls-5" d="m91.67,376.11l-8.9,15.42h-12.93l16.84-29.17c1.48,4.67,3.16,9.25,4.99,13.75Z"/><path class="cls-5" d="m271.2,65.14c-9.4,16.3-22.6,39.14-32.02,55.47-4.86.66-9.66,1.53-14.4,2.56l20.66-35.78h0c4.67-8.08,14.59-25.27,19.3-33.44l6.46,11.19Z"/></g><g id="Side-3"><path class="cls-5" d="m155.16,456.95h-76.83l5.52-9.57h59.2c3.9,3.35,7.93,6.54,12.11,9.57Z"/><path class="cls-5" d="m451.16,456.95h-76.82c4.17-3.03,8.2-6.22,12.1-9.58h59.19l5.53,9.58Z"/><path class="cls-5" d="m126.79,431.59H46.72l6.47-11.19h64.15c3,3.85,6.15,7.59,9.45,11.19Z"/><path class="cls-5" d="m436.52,431.59h-33.82c3.3-3.6,6.45-7.34,9.45-11.19h17.91l6.46,11.19Z"/></g></g></g><circle id="White_BG" class="cls-1" cx="265.08" cy="305.43" r="186.32"/><path id="Circle" class="cls-8" d="m340.86,135.07c-38.8-17.47-83.73-20.94-124.79-9.77-114.73,27.92-176.32,171.53-112.54,274.76h0c67.35,117.93,241.31,123.54,316.03,10.16h0c66.35-92.02,23.26-233.59-78.7-275.15Zm88.31,172.1c-.09,48.82-23.6,96.45-61.36,126.58t-.01.01c-62.82,52.94-164.79,46.77-220.77-13.36-82.57-81.99-49.76-228.18,58.52-268.08,105.08-42.65,226.35,40.44,223.62,154.85Z"/><g id="Tree"><path class="cls-9" d="m395.58,264.21c.02,5.41-2.08,10.07-7,12,2,3.88.5,5.51.5,10.01.22,1.25-2.67,6.11-3,6.49-6.5,4-9.5,8-18,13.01-6.03,3.54-16.5,2-20-4.01-10,3.5-1.49,14.5-13.5,13.01-3.6-.46-5.25-3.5-8.87-3.5-7.13,0-10.5-5.01-17.63-5.01-7.75,0-10.25,3.5-18,3.5-11.27.1-12.36-8.35-23.08-13.03h-.01c-23.58-2.44-55.04-5.65-78.57-8.08-2.07.93-3.84,2.12-3.84,2.12,2.25,3.25,7.49,4.5,7.49,8.49,0,3.13-2.74,3.01-4.99,5-2.76,2.51-1.5,6.75-5.01,8,.13.75-.61.63-.49,1.51,1,6.99-3.51,7.22-7,6.99-15-1-13-14.5-13-14.5-.75,1.13-2.43-5.85-3.51-5-12,9.5-18.62,2.5-17.5-4.5-.04.01-.08.01-.12.02h-.01c-2.87.44-5.43-.52-8.36-.52-4.75-.12-5.98-6.68-6.01-10.5,0-12.7,8.93-13.99,11.48-26.84h0c.01-.06.02-.1.03-.15-3.09-.33-10.06-2.43-8-8.51,3.44-11,7.34-9.54,9.45-10.1h0c.84-.23,1.39-.8,1.5-2.63.02-.24.03-.49.03-.77,0-1.11.77-1.75,1.73-2.25,1.6-.87,3.77-1.36,3.77-3.24-.1-4.89.31-8.49,5.51-10.01,1.27-6.13,2.8-15.44,10-15.5,1.99,0-.75-5.5,1.99-7.5-.04-.25.02-.55.15-.87t.01-.02c1.02-2.31,4.14-4.69,3.88-6.7.1-1.3.57-1.97,1.31-2.27,2.61-1.08,8.47,2.55,12.16-1.14,4.5-4.5,2.41-4.66,8.99-8.5.87-.5,1.95-.83,3.21-1,9.74-.79,22.15,3.23,32.8,3,7.75,0,14.5-10,26.12-7.5,4.9,1.05,7.37-2,12.38-2,6.86-.02,10.01,7.18,15.59,10.9,7.26,4.74,11.5-4.11,15.41,6.6,1.63-.63,3.25,3.5,5,3.5,5.63,0,12.87,2.62,15.5,7.5,6.87-13.19,17.86-10.57,29-4.5.16-.43.34-.81.54-1.16.95-1.59,2.4-2.34,4.47-2.34,4.24,0,7.37,7.75,11.49,8.5,2.61.49,4.67.66,6.28.79h.01c4.93.42,5.71.51,5.71,8.71.01,4.1,8.74-.67,6.98,13.28-.25,3.52,2.22,4.81.52,8.23h2.37c5.85.16,9.56,7.8,12.13,11.99,2.95,5.04-7.24,5.15-7,10.75,0,4.87,7,5.38,7,10.25Z"/><path class="cls-3" d="m375.09,420.72s-3.78,0-7.12-.32c-1.52-.15-2.95-.37-3.89-.68-2.47-.82-12.35-1.98-14.12.68-.41.57-.41,1.33.13,2.31,2.03,4.55-3.67,12.94-6.31,17.06,1.7-3.22,2.41-8.74,1.3-13.05-1.19-5.46.26-3.81-2.72-6.32-4.05-4.14-13.88-5.56-18.77-7.18-4.5-1.5-55.51-1-60.51-1s-28.5-17.01-28.5-14,13.51,10.5,15,17.5c1.39,6.21.63,12.72,0,18.49-.35,3.43,3.3,8.98,5.63,12.12-1.68-1.67-4.75-3.96-10.13-6.11-9.26-3.75-9.69-15.63-11.5-23.5-1.5-5-5.5-5-9-7s-13.53-1.89-12.5-6c2.5-10-2-33.51-2-30.01s0,26.51-3,28.01-7-1-11,3c-2.9,2.9-4.21,11.04-5.3,15.68-.41,1.77-.79,3.04-1.2,3.32-1.09.49-7.62,11.91-8.48,13.46.82-2.04,2.49-9.51,1.98-12.96-.47-5.71-2.51-13.51-2.51-18,0-1.85,2.78-5.29,6.05-8.71-.79.41-1.63.82-2.54,1.2-2.34,1.03-12.5,1.51-19.51,2.01-7,.5-7,17.49-8.49,13.99-1.5-3.49,6-9.99,3.5-13.99-.86-1.37-3.12-1.45-5.73-.96,2.68-1.88,5.29-6.13,11.23-7.04,6.5-1,7-.5,8.5-3.5,1.5-3.01,6.5-4.5,9-8.5,2.49-4,3-7.5,5-13.01,2-5.5,5.49-4.5,6-8,.5-3.49,2.5-47.49,2-57.49-.48-9.52-1.86-8.17-7.16-13.62-5.05-6.25-16.59-11.19-16.34-10.89.13.23-4.11-3.84-5.66-9,1.23.14,2.45-.28,3.12-1.19,8.18,3.34,29.04,20.19,29.04,20.19,0,0,.5-11.5-2.5-23-1.72-6.57-3.76-9.38-5.19-10.59,2.1-1.1,3.92-2.62,5.55-4.43,1.81,4.32,5.97,14.78,7.14,22.53,1.5,9.97,3.65,18.13,8.97,16.5.01,0,.01-.01.01-.01h.01c15.77-4.92,22.28-40.72,31.09-43.4.55.22,1.11.41,1.72.55.83,3.4-9.14,18.79-11.3,27.85-2.5,10.5-6.5,15-5,17.5s6.5-4.5,13.5-10.5c7-5.99,13.51-14.5,19.5-20.99,4.08-4.42,7.92-10.23,9.5-11.92.25,0,.49-.01.73-.01-1.71,5.43-2.9,20.05-10.23,22.92-6.12,2.18-10.05,12.72-10,14.01,1.5-2,40-4.01,46-10,6.01-6,16.5-8.51,16.5-14.51s10.01-16.49,19-16.49,12.5-14.01,13.01-19.5c.02-.29.07-.53.11-.74.77.12,1.55.2,2.34.22,1.74,2.38,3.3,8.2.54,14.01-4.5,9.51-9.99,10-18.99,14.01-9.01,3.99-8,7-4.01,8,4.01,1,29.01.49,29.01.49l3.99,6s-25-3.5-36.5,0c-11.5,3.5-11.99,14.01-19.5,17.51-8.39,3.91-28.03,14.45-36.58,12.96-7.34.5-16.69,10.15-20.42,11.53-4,1.5-4,65.5-3,70.51,1,5,14,12.5,15.5,15.49,1.51,3.01,4.5,3.01,10,6.01s48.5,2.5,53,1.99c4.5-.49,5.01-5.99,12-6.49,7-.51,34.01,5,26.5,5s-20.99,1.49-24,3c-3,1.5,4.5,4,6,6,1.81,1.96,26.62,9.28,32.51,11Z"/><path class="cls-7" d="m142.58,403.72s6.28-3.02,11.27-3.97m32.77-2.24c4.72-4.93,10.46-9.79,10.46-9.79m146.7,52.05s0,0,0,.02m-86.69,8.93s-.43-.51-1.07-1.34m84.58-3.16s1.42-1.81,3.18-4.43c0,0,0,0,0-.02m-71.47-191.98h0m-105.23-35.58c1.57,6.56,7.92,8.58,14.31,8.5,2.81-.09,4.29-1.5,7.19-1.5,7.38,0,12.13,3,17,8.51m-68.03,31.16c1.72,2.51,2.7,5.49,5.52,5.81,3.01.37,4.21-2.3,5.5-4.97,3.64,7.27,10.12,8.91,17.84,8.99m-28.99-10.01c-.12-.17-.24-.33-.36-.49m35,5.01c-1,1.39-1.58,3.15-2.54,4.3m54.04-24.31c2.63,2,4.37,4.01,7.75,4.01,3.12,0,5.13-2.13,6.25-5.01,2.44,1.22,4.17,2.36,6.09,3.1m1.72.55c6.64,1.42,10.28-1.06,11.7-8.15m-116.62,59.03c3.56-1.51,4.97-6.27,6.62-10.52,2.87,1.12,4.88,1.74,8,1.5m14-37c3.5,4.37,7.5,5.5,13.01,5.5,3.41,0,6.3-.76,8.81-2.1m5.54-4.42c4.82-5.33,7.92-13.23,11.14-20.98,2.75,1.99,4.75,3.5,8.25,3.5,7,0,11.25-3,16.26-8,1.99,2.5,3.62,3.87,6.49,5m83.5,58.5c1-3.12,2.87-6,6.26-6,4.37,0,7.62,1.12,10.25,4.5,3.37-1.63,5.24-4.01,9-4.01,6.25,0,9.25,3.5,14.49,7m-28.5-79c.55,7.16,6.24,12.17,13.13,13.27m2.34.22c.25,0,.52.03.76,0,.87-.1,1.47-.75,2.28-.98,1.03,2.13,2.38,3.95.68,6.11-.35.56-.68,1.13-.68,1.89-.03,4.74,5.14,7.54,9.5,7.5,1.74,0,2.75-1.25,4-2.5l2.51-.51c-2.63,1.87-4.01,4.38-4.01,7.75,0,5.37,5.01,6.75,7.5,11.75m-91.42-72.6c1.58,2.9,2.18,6.73.91,11.6-.5,1.93-.99,2.99-.99,5,0,4.63,6.49,3,9.5,10.5.83,2.09-2.5,10-4.5,11,5.88,3.38,5.5,8.25,5.5,15-.35,10.66-14.19,12.88-18.27,12.58m-7.24-3.07c.36,2.76,3.39,3.1,6.5,3.08m-59.02,40.91s0,0-.02,0c-2.57,1.47-4.23,3.34-4.48,6.49m24.51,57c.25-.88,1.5-1,1.5-2,0-9.13-6.5-13.37-6.5-22.5,0-4.25,6-4.75,6-9,0-6.62,3-10.25,5.01-16.5m-13.01,44.5l1,1.99v9.63c0,1.88,1.13,2.76,2,4.38m5.5,14.49c-1.16-6.33.02-11.66,0-17.99m-9-55.51c1.04-7.3,8.45-8.98,14.5-11.5,5.24-2.12,7.01-5.75,12.51-7.49"/></g><path class="cls-2" d="m331.47,326.14v12.99h-4.64c-.47-1.41-.96-2.64-1.47-3.7-.51-1.06-1.03-1.95-1.56-2.67-.54-.72-1.13-1.29-1.78-1.72-.65-.43-1.41-.72-2.3-.88-.88-.16-1.94-.24-3.17-.24h-14.96v22.54h10.13c1.39,0,2.48-.18,3.27-.54.79-.36,1.44-.97,1.97-1.83.52-.86,1.02-2.21,1.49-4.04h4.45v16.52h-4.45c-.44-1.72-.93-3.02-1.47-3.89-.54-.87-1.18-1.5-1.92-1.87-.74-.37-1.86-.56-3.34-.56h-10.13v24.82h14.73c1.55,0,2.8-.12,3.76-.37.96-.24,1.79-.66,2.49-1.25s1.31-1.36,1.85-2.3c.54-.95.99-1.93,1.35-2.95.36-1.02.86-2.5,1.49-4.45h4.69l-.9,15.1h-43.85v-2.11c1.96-.46,3.27-.97,3.93-1.53.66-.56,1.1-1.36,1.3-2.39.21-1.03.31-2.61.31-4.73v-37.21c0-1.98-.08-3.42-.24-4.32-.16-.9-.42-1.61-.78-2.11s-.84-.9-1.44-1.21-1.63-.64-3.08-1.01v-2.11h44.28Z"/><path class="cls-2" d="m340.37,326.14h51.24v14.97h-4.64c-.7-2.47-1.38-4.42-2.06-5.85-.68-1.43-1.4-2.52-2.16-3.27-.76-.75-1.57-1.28-2.44-1.59-.87-.31-2.17-.47-3.91-.47h-6.01v44.05c0,1.69.1,3.04.31,4.04s.52,1.8.95,2.39c.43.59,1,1.05,1.73,1.38.73.33,1.86.65,3.41.97v2.11h-21.64v-2.11c.95-.2,1.78-.42,2.51-.65.73-.23,1.32-.51,1.78-.84.46-.33.84-.75,1.14-1.27.3-.52.54-1.22.71-2.11.17-.89.26-2.19.26-3.92v-44.05h-5.97c-1.48,0-2.71.13-3.67.39-.96.26-1.85.8-2.68,1.61s-1.57,1.98-2.25,3.48c-.68,1.51-1.32,3.41-1.92,5.7h-4.69v-14.97Z"/></svg>